<svg width="24" height="22" viewBox="0 0 24 22" fill="none" xmlns="http://www.w3.org/2000/svg">
<path d="M21.2267 2.01329C20.96 1.22663 20.2133 0.666626 19.3333 0.666626H4.66667C3.78667 0.666626 3.05333 1.22663 2.77333 2.01329L0 9.99996V20.6666C0 21.4 0.6 22 1.33333 22H2.66667C3.4 22 4 21.4 4 20.6666V19.3333H20V20.6666C20 21.4 20.6 22 21.3333 22H22.6667C23.4 22 24 21.4 24 20.6666V9.99996L21.2267 2.01329ZM4.66667 15.3333C3.56 15.3333 2.66667 14.44 2.66667 13.3333C2.66667 12.2266 3.56 11.3333 4.66667 11.3333C5.77333 11.3333 6.66667 12.2266 6.66667 13.3333C6.66667 14.44 5.77333 15.3333 4.66667 15.3333ZM19.3333 15.3333C18.2267 15.3333 17.3333 14.44 17.3333 13.3333C17.3333 12.2266 18.2267 11.3333 19.3333 11.3333C20.44 11.3333 21.3333 12.2266 21.3333 13.3333C21.3333 14.44 20.44 15.3333 19.3333 15.3333ZM2.66667 8.66663L4.66667 2.66663H19.3333L21.3333 8.66663H2.66667Z" fill="black"/>
</svg>
